<svg width="119" height="103" viewBox="0 0 119 103" fill="null" stroke="null" xmlns="http://www.w3.org/2000/svg">
<path d="M53.2348 72.0314L53.5535 68.0441L53.3944 68.0314H53.2348V72.0314ZM101.125 93L98.4299 95.9557L105.125 102.061V93H101.125ZM101.125 65.4305L98.7542 62.2089L97.125 63.4078V65.4305H101.125ZM4 38.0157H8C8 21.4385 21.4385 8 38.0157 8V4V0C17.0202 0 0 17.0202 0 38.0157H4ZM38.0157 72.0314V68.0314C21.4385 68.0314 8 54.5929 8 38.0157H4H0C0 59.0112 17.0202 76.0314 38.0157 76.0314V72.0314ZM53.2348 72.0314V68.0314H38.0157V72.0314V76.0314H53.2348V72.0314ZM53.2348 72.0314L52.9161 76.0187C64.5331 76.9471 72.8406 79.2097 79.6961 82.5116C86.5724 85.8236 92.211 90.2852 98.4299 95.9557L101.125 93L103.82 90.0443C97.3847 84.1763 91.0745 79.1124 83.1675 75.3041C75.2397 71.4857 65.9292 69.0332 53.5535 68.0441L53.2348 72.0314ZM101.125 93H105.125V71.5655H101.125H97.125V93H101.125ZM101.125 71.5655H105.125V65.4305H101.125H97.125V71.5655H101.125ZM115 38.0157H111C111 47.939 106.189 56.7379 98.7542 62.2089L101.125 65.4305L103.496 68.6522C112.891 61.7385 119 50.5902 119 38.0157H115ZM80.9843 4V8C97.5615 8 111 21.4385 111 38.0157H115H119C119 17.0202 101.98 0 80.9843 0V4ZM38.0157 4V8H80.9843V4V0H38.0157V4Z" stroke="null" />
</svg>
